<?xml version="1.0" encoding="UTF-8"?>
<svg width="24px" height="24px" viewBox="0 0 24 24" version="1.1" xmlns="http://www.w3.org/2000/svg" xmlns:xlink="http://www.w3.org/1999/xlink">
    <!-- Generator: Sketch 64 (93537) - https://sketch.com -->
    <title>img/icons/active-pin</title>
    <desc>Created with Sketch.</desc>
    <g id="img/icons/active-pin" stroke="none" stroke-width="1" fill="none" fill-rule="evenodd">
        <circle id="Oval" fill="#FF3E18" cx="12" cy="12" r="12"></circle>
        <g id="fish" fill="#FFFFFF" transform="translate(4.000000, 4.000000)">
            <path d="M3.91677979,3.83428975 C6.3868468,2.64286688 8.89002789,2.42438713 11.4263231,3.17885051 C11.4349899,3.18142861 11.442872,3.18613866 11.4492484,3.19254982 C11.4703108,3.21372713 11.4702177,3.24796919 11.4490404,3.26903161 L11.4490404,3.26903161 C10.6669496,4.04582507 10.1779926,4.90624857 9.98164207,5.849772 C9.74270839,6.99792037 9.81053408,8.36944768 10.1851191,9.96435393 C10.1858479,9.96745699 10.18639,9.97060098 10.1867423,9.97376895 C10.1916084,10.0175239 10.1600828,10.056939 10.1163279,10.0618051 L10.1163279,10.0618051 L9.81065598,10.0918902 C8.87273227,10.1710138 7.7474906,10.1576335 6.43493097,10.0517494 C4.11087968,9.86426823 3.55090731,9.38600304 1.97472694,9.38600304 C1.21722304,9.38600304 1.08089965,10.0968153 1.13681982,10.5615124 C1.19908561,11.0789416 1.63789374,11.9886058 3.12546214,11.9886058 C3.77247059,11.9886058 4.33855247,11.9175916 4.82370779,11.7755632 C4.83627686,11.7718836 4.84955459,11.7713307 4.86238609,11.7739524 C4.9058849,11.7828401 4.93394276,11.8253077 4.92505509,11.8688065 L4.92505509,11.8688065 C4.51332682,13.88198 4.05540453,14.8810528 3.55090731,14.865947 C2.77770063,14.8427954 1.59820597,13.7417957 1.24070676,13.3009741 C0.448795463,12.3244918 -2.91038305e-14,11.3209947 -2.91038305e-14,10.0517494 C-2.91038305e-14,6.67348078 2.28130547,4.62315155 3.91677979,3.83428975 Z M10.2503282,10.8063475 L10.2504982,10.8078435 C10.2643054,10.8062744 10.2767703,10.8161954 10.2783393,10.8300026 C10.2791296,10.8369568 10.2769875,10.8439259 10.2724278,10.8492357 C9.70628335,11.5085124 9.33507603,11.894537 9.15880585,12.0073096 C8.87203195,12.1907791 8.26708476,12.2882557 7.3439643,12.2997391 C7.32847457,12.3013459 7.31574702,12.2889311 7.31555411,12.2734238 C7.31549075,12.2683301 7.31681422,12.263315 7.31938279,12.2589158 L8.07179839,10.9702468 C8.09672963,10.9271943 8.14362148,10.9017422 8.19331468,10.9041168 C8.64623855,10.9257602 8.99453122,10.9279247 9.23819269,10.9106104 C9.40657788,10.8986452 9.74395638,10.8638908 10.2503282,10.8063475 Z M12.4746986,3.5183878 L12.5172404,3.52419039 L12.7766033,3.61128844 C13.4594209,3.86088127 14.0712108,4.25073707 14.6119732,4.78085583 C15.3880766,5.5416835 15.8397342,6.21984129 15.9669461,6.8153292 C15.9672588,6.81679316 15.9675539,6.81826083 15.9678313,6.81973189 C15.9869242,6.92097787 15.9203259,7.01853174 15.8190799,7.03762456 L15.8190799,7.03762456 L15.6374991,7.07327267 C15.408722,7.11985626 15.2333799,7.16324545 15.1114726,7.20344027 C14.9427944,7.25905621 14.728425,7.37547467 14.4683643,7.55269562 C14.4605975,7.5579884 14.4543885,7.56526314 14.4503816,7.57376501 C14.437981,7.60007675 14.4492582,7.6314593 14.47557,7.64385989 L14.47557,7.64385989 C14.7561668,7.77683974 14.9682289,7.8644966 15.1114726,7.9074327 C15.2555906,7.95063087 15.486632,7.99549558 15.8045967,8.04202683 C15.8133378,8.04330602 15.8216207,8.04674911 15.8286928,8.05204327 C15.852134,8.06959117 15.8569114,8.10281936 15.8393635,8.12626051 L15.8393635,8.12626051 C15.402616,8.71020881 14.742324,9.14584998 13.8587392,9.43337228 C12.9529213,9.72812934 12.0721235,9.90111096 11.216346,9.95231716 C11.164494,9.95541976 11.1179141,9.92080561 11.1059266,9.87026304 L11.1059266,9.87026304 C10.7581921,8.40302414 10.6940478,7.13318923 10.9137393,6.06070003 C11.1325841,4.99234426 11.6264989,4.15446536 12.3954837,3.54706333 C12.4298541,3.51991497 12.4753608,3.51136619 12.5172404,3.52419039 Z M13.9847098,5.31636425 C13.7821251,5.31636425 13.6178977,5.48027188 13.6178977,5.6824622 C13.6178977,5.88465252 13.7821251,6.04856016 13.9847098,6.04856016 C14.1872945,6.04856016 14.3515218,5.88465252 14.3515218,5.6824622 C14.3515218,5.48027188 14.1872945,5.31636425 13.9847098,5.31636425 Z M7.40967436,0.7947256 C7.93012373,0.907974168 8.49652353,1.33276173 9.10887376,2.06908828 L9.10951836,2.06855222 C9.12864838,2.0915553 9.12550865,2.12571092 9.10250557,2.14484094 C9.09198527,2.15358992 9.07854388,2.15803371 9.06488179,2.15727954 C8.44551305,2.12308951 7.98041833,2.12041949 7.66959762,2.14926948 C7.39327284,2.17491761 7.01573337,2.23088563 6.53697918,2.31717356 L6.28924364,2.36324886 C6.26024813,2.36870262 6.23059443,2.35783933 6.2119837,2.33494557 C6.0253374,2.10534497 5.77773294,1.88411333 5.46917031,1.67125066 C5.22308124,1.50148553 4.93860392,1.34266428 4.61573833,1.19478693 L4.62452651,1.1755994 C4.6083436,1.16818738 4.60123338,1.1490599 4.6086454,1.13287698 C4.61273572,1.12394646 4.62067542,1.11736878 4.6302109,1.11501094 C5.95688189,0.786964716 6.88336971,0.680202937 7.40967436,0.7947256 Z"></path>
        </g>
    </g>
</svg>