<?xml version="1.0" encoding="UTF-8"?>
<svg width="24px" height="24px" viewBox="0 0 24 24" version="1.1" xmlns="http://www.w3.org/2000/svg" xmlns:xlink="http://www.w3.org/1999/xlink">
    <!-- Generator: Sketch 64 (93537) - https://sketch.com -->
    <title>bait_categories</title>
    <desc>Created with Sketch.</desc>
    <g id="bait_categories" stroke="none" stroke-width="1" fill="none" fill-rule="evenodd">
        <path d="M22,18 L22,20 L11.7333333,20 L11.7333333,18 L22,18 Z M9.86666667,18 L9.86666667,20 L8,20 L8,18 L9.86666667,18 Z M13.59,2 L15,3.41 L13.37,5.04 C14.12,5.55 14.74,6.22 15.19,7 L15.19,7 L18,7 L18,9 L15.91,9 C15.96,9.33 16,9.66 16,10 L16,10 L16,11 L18,11 L18,11.999 L6,12 L5.99921534,18.463753 C5.53077692,18.0423516 5.12862069,17.5483952 4.81,17 L4.81,17 L2,17 L2,15 L4.09,15 C4.04,14.67 4,14.34 4,14 L4,14 L4,13 L2,13 L2,11 L4,11 L4,10 C4,9.66 4.04,9.33 4.09,9 L4.09,9 L2,9 L2,7 L4.81,7 C5.26,6.22 5.88,5.55 6.62,5.04 L6.62,5.04 L5,3.41 L6.41,2 L8.59,4.17 C9.04,4.06 9.51,4 10,4 C10.49,4 10.96,4.06 11.42,4.17 L11.42,4.17 L13.59,2 Z M22,14 L22,16 L11.7333333,16 L11.7333333,14 L22,14 Z M9.86666667,14 L9.86666667,16 L8,16 L8,14 L9.86666667,14 Z M12,9 L8,9 L8,11 L12,11 L12,9 Z" fill="#000000"></path>
    </g>
</svg>