<?xml version="1.0" encoding="UTF-8"?>
<svg width="24px" height="24px" viewBox="0 0 24 24" version="1.1" xmlns="http://www.w3.org/2000/svg" xmlns:xlink="http://www.w3.org/1999/xlink">
    <!-- Generator: Sketch 64 (93537) - https://sketch.com -->
    <title>catches</title>
    <desc>Created with Sketch.</desc>
    <g id="catches" stroke="none" stroke-width="1" fill="none" fill-rule="evenodd">
        <g id="Fish-Icon" transform="translate(2.000000, 3.000000)" fill="#000000">
            <path d="M9.90758755,0 C9.90758755,0 12.3711089,2.70144 12.7966926,3.63744 C13.7086576,3.456 19.4236381,5.00544 20,10.40544 C19.6668288,11.952 17.5997082,15.05088 11.7631323,15.94944 C11.5515564,16.45344 10.7587549,17.74944 10.7587549,17.74944 C10.7587549,17.74944 7.3540856,18 7.3540856,18 C7.93287938,17.02944 7.7188716,15.73344 7.7188716,15.73344 C7.7188716,15.73344 3.12986381,12.60288 3.12986381,12.60288 C3.12986381,12.60288 2.33949416,14.29344 0.179961089,14.18688 C0.393968872,13.68 1.3959144,10.87488 0,5.58144 C2.31031128,6.048 3.00826848,7.02144 3.00826848,7.02144 C3.00826848,7.02144 5.83657588,5.54688 5.83657588,5.54688 C5.83657588,5.54688 5.89494163,4.71744 5.53015564,3.96288 C8.39007782,1.83744 9.90758755,0 9.90758755,0 Z M14,6 C13.4477153,6 13,6.44771525 13,7 C13,7.55228475 13.4477153,8 14,8 C14.5522847,8 15,7.55228475 15,7 C15,6.44771525 14.5522847,6 14,6 Z" id="Catches"></path>
        </g>
    </g>
</svg>