<?xml version="1.0" encoding="UTF-8"?>
<svg width="24px" height="24px" viewBox="0 0 24 24" version="1.1" xmlns="http://www.w3.org/2000/svg" xmlns:xlink="http://www.w3.org/1999/xlink">
    <!-- Generator: Sketch 57.1 (83088) - https://sketch.com -->
    <title>Icon</title>
    <desc>Created with Sketch.</desc>
    <g id="Icon" stroke="none" stroke-width="1" fill="none" fill-rule="evenodd">
        <path d="M11.9290508,3.008611 C11.9290508,3.008611 14.1462201,5.559971 14.5292453,6.443971 C15.3500138,6.272611 20.4934963,7.735971 21.012222,12.835971 C20.7123679,14.296611 18.8519594,17.223331 13.5990411,18.071971 C13.4086228,18.547971 12.6951014,19.771971 12.6951014,19.771971 C12.6951014,19.771971 9.63089904,20.008611 9.63089904,20.008611 C10.1518134,19.091971 9.95920644,17.867971 9.95920644,17.867971 C9.95920644,17.867971 5.82909943,14.911331 5.82909943,14.911331 C5.82909943,14.911331 5.11776675,16.507971 3.17418698,16.407331 C3.36679398,15.928611 4.26854496,13.279331 3.012222,8.279971 C4.93155753,8.68671562 5.61443691,9.50136366 5.70813826,9.62428736 L5.71966363,9.639971 C5.71966363,9.639971 8.26514029,8.247331 8.26514029,8.247331 C8.26514029,8.247331 8.31766947,7.463971 7.98936208,6.751331 C10.563292,4.743971 11.9290508,3.008611 11.9290508,3.008611 Z M16.125,9 C15.5036797,9 15,9.50367966 15,10.125 C15,10.7463203 15.5036797,11.25 16.125,11.25 C16.7463203,11.25 17.25,10.7463203 17.25,10.125 C17.25,9.50367966 16.7463203,9 16.125,9 Z" id="Combined-Shape" stroke="#000000" stroke-width="0.5" fill="#000000"></path>
    </g>
</svg>