<?xml version="1.0" encoding="UTF-8"?>
<svg width="24px" height="24px" viewBox="0 0 24 24" version="1.1" xmlns="http://www.w3.org/2000/svg" xmlns:xlink="http://www.w3.org/1999/xlink">
    <title>img/icons/catches</title>
    <defs>
        <filter id="filter-1">
            <feColorMatrix in="SourceGraphic" type="matrix" values="0 0 0 0 0.000000 0 0 0 0 0.000000 0 0 0 0 0.000000 0 0 0 1.000000 0"></feColorMatrix>
        </filter>
    </defs>
    <g id="img/icons/catches" stroke="none" stroke-width="1" fill="none" fill-rule="evenodd">
        <g id="fish" transform="translate(2.000000, 2.000000)" filter="url(#filter-1)">
            <g>
                <path d="M4.89597474,4.79286218 C7.99071683,3.30013081 11.1270437,3.02922413 14.3049553,3.98014213 C14.3135349,3.98270939 14.3213319,3.98739143 14.32763,3.99375815 C14.3483883,4.01474265 14.3482049,4.04858185 14.3272204,4.06934012 L14.3272204,4.06934012 L14.1060362,4.29634203 C13.2478782,5.21212694 12.7048837,6.21741793 12.4770526,7.312215 C12.1772951,8.75264007 12.2637918,10.4743313 12.7365426,12.4772888 C12.737271,12.4803751 12.7378146,12.4835022 12.7381704,12.4866534 C12.7431085,12.5303866 12.7116588,12.5698425 12.6679256,12.5747806 L12.6679256,12.5747806 C11.4190995,12.7161033 9.87766722,12.7126358 8.04366371,12.5646867 C5.13859961,12.3303353 4.43863414,11.7325038 2.46840868,11.7325038 C1.5215288,11.7325038 1.35112456,12.6210192 1.42102477,13.2018905 C1.49885701,13.8486769 2.04736718,14.9857572 3.90682768,14.9857572 C4.72968121,14.9857572 5.44782037,14.8938689 6.06124517,14.7100923 C6.0738713,14.7063096 6.08723623,14.7057038 6.10015281,14.7083287 C6.14346925,14.7171314 6.17144819,14.7593823 6.16264551,14.8026987 L6.16264551,14.8026987 L6.10504467,15.0795171 C5.60403558,17.4330576 5.04856541,18.6006965 4.43863414,18.5824338 C3.47212579,18.5534943 1.99775746,17.1772447 1.55088345,16.6262176 C0.560994328,15.4056147 -3.55271368e-14,14.1512433 -3.55271368e-14,12.5646867 C-3.55271368e-14,8.34185097 2.85163184,5.77893943 4.89597474,4.79286218 Z M12.8251744,13.5053522 C12.8404553,13.5036143 12.8542518,13.5145931 12.8559897,13.529874 C12.8568648,13.5375685 12.8544962,13.54528 12.8494527,13.5511566 C12.1367511,14.3815866 11.6697692,14.86758 11.4485073,15.0091369 C11.0886152,15.2393854 10.3278387,15.3612864 9.16617778,15.37484 C9.15141317,15.3750826 9.13930376,15.3632525 9.13913149,15.3484871 C9.13907499,15.343644 9.14033509,15.3388765 9.14277721,15.3346939 L10.1001264,13.6950332 C10.1252643,13.6521807 10.1721052,13.6267787 10.2217281,13.6291869 C10.7975981,13.6571336 11.2396024,13.660159 11.5477409,13.638263 C11.7595936,13.623209 12.1854492,13.5792963 12.8253078,13.5065249 L12.8251744,13.5053522 Z M15.5870487,4.39444519 L15.6292847,4.40013224 L15.9235596,4.49707031 C16.7961097,4.80823138 17.5765787,5.3012312 18.2649665,5.97606979 C19.2573607,6.94893112 19.8253686,7.81365738 19.9689902,8.57024858 C19.9690322,8.5704702 19.9690739,8.5706919 19.9691152,8.57091367 C19.9879726,8.67225755 19.9211041,8.76969993 19.8197602,8.78855732 L19.8197602,8.78855732 L19.6178454,8.82732959 C19.2969312,8.89098749 19.0540963,8.94997774 18.8893408,9.00430033 C18.6744402,9.07515654 18.4002089,9.22496574 18.0666468,9.45372792 C18.0588189,9.45909638 18.0525562,9.46644627 18.0484981,9.47502693 C18.0358357,9.50180161 18.0472758,9.53377175 18.0740505,9.54643423 L18.0740505,9.54643423 L18.2472431,9.62669945 C18.5232856,9.75285954 18.7373181,9.83872335 18.8893408,9.88429087 C19.0727682,9.93927171 19.3688422,9.99641226 19.7775629,10.0557125 C19.7862772,10.0569769 19.7945432,10.0603781 19.8016237,10.0656129 C19.8253209,10.0831328 19.8303286,10.1165459 19.8128087,10.1402431 L19.8128087,10.1402431 L19.6703481,10.3209734 C19.1264042,10.9693369 18.3440961,11.4595842 17.323424,11.7917154 C16.1831879,12.1627531 15.0746685,12.3794228 13.9978659,12.4417244 C13.9461157,12.4447186 13.899667,12.4101747 13.8876431,12.3597518 L13.8876431,12.3597518 L13.7992157,11.9685062 C13.4385065,10.2898976 13.3861593,8.82568717 13.6421741,7.57587504 C13.9170567,6.23395452 14.5391195,5.18293092 15.5083624,4.42280424 C15.5425623,4.39598304 15.5876917,4.38752164 15.6292847,4.40013224 Z M17.4808872,6.64545531 C17.2276563,6.64545531 17.0223721,6.85033986 17.0223721,7.10307775 C17.0223721,7.35581565 17.2276563,7.5607002 17.4808872,7.5607002 C17.7341181,7.5607002 17.9394023,7.35581565 17.9394023,7.10307775 C17.9394023,6.85033986 17.7341181,6.64545531 17.4808872,6.64545531 Z M9.26209295,0.993407 C9.86799069,1.12524893 10.5237104,1.59487877 11.2292522,2.40229651 L11.4066281,2.61122748 C11.4253712,2.63390565 11.4221812,2.66748421 11.399503,2.6862273 C11.3891605,2.69477523 11.3759732,2.69910545 11.3625766,2.69835259 C10.5726301,2.65395923 9.98077023,2.65003731 9.58699702,2.68658685 C9.18176131,2.72420033 8.60238126,2.81398053 7.84885686,2.95592746 L7.8488033,2.95564315 C7.81995337,2.96107782 7.79045131,2.9502146 7.772015,2.92736823 C7.53790664,2.63725999 7.22605593,2.35782502 6.83646289,2.08906333 C6.52997899,1.87763467 6.17586087,1.67978579 5.77410852,1.49551668 L5.7739235,1.49592006 C5.74692739,1.48353794 5.73508042,1.45161557 5.74746255,1.42461946 C5.75429021,1.40973348 5.76752904,1.39876998 5.78342673,1.39483641 C7.44408338,0.983938714 8.60363879,0.850128912 9.26209295,0.993407 Z" fill="#FFFFFF"></path>
            </g>
        </g>
    </g>
</svg>