<?xml version="1.0" encoding="UTF-8"?>
<svg width="24px" height="24px" viewBox="0 0 24 24" version="1.1" xmlns="http://www.w3.org/2000/svg" xmlns:xlink="http://www.w3.org/1999/xlink">
    <!-- Generator: Sketch 64 (93537) - https://sketch.com -->
    <title>img/icons/hook</title>
    <desc>Created with Sketch.</desc>
    <g id="img/icons/hook" stroke="none" stroke-width="1" fill="none" fill-rule="evenodd">
        <path d="M11.002552,22.175 C9.33588537,22.175 7.9192187,21.4166667 6.75255203,20.25 C5.58588537,19.0833333 5.00255203,17.6666667 5.00255203,16 L5.00255203,10 L9.1739157,14.825 L8.45139878,14.825 L7.00255203,14.825 L7.00255203,16 C7.00255203,17.1 7.3942187,18.0416667 8.17755203,18.825 C8.96088537,19.6083333 9.90255203,20 11.002552,20 C12.102552,20 13.0442187,19.6083333 13.827552,18.825 C14.6108854,18.0416667 15.002552,17.1 15.002552,16 L15,7.82085915 C14.4,7.58752581 13.9166667,7.21669248 13.55,6.70835915 C13.1833333,6.20002581 13,5.62919248 13,4.99585915 C13,4.36252581 13.1833333,3.79169248 13.55,3.28335915 C13.9166667,2.77502581 14.4,2.40419248 15,2.17085915 C15.2800585,2.05695305 15.6142426,2 16.002552,2 C16.3908615,2 16.7233442,2.05695305 17,2.17085915 C17.6,2.40419248 18.0833333,2.77502581 18.45,3.28335915 C18.8166667,3.79169248 19,4.36252581 19,4.99585915 C19,5.62919248 18.8166667,6.20419248 18.45,6.72085915 C18.0833333,7.23752581 17.6,7.60419248 17,7.82085915 L17.002552,16 C17.002552,17.6666667 16.4192187,19.0833333 15.252552,20.25 C14.0858854,21.4166667 12.6692187,22.175 11.002552,22.175 Z M16,5.99585915 C16.2833333,5.99585915 16.5208333,5.90002581 16.7125,5.70835915 C16.9041667,5.51669248 17,5.27919248 17,4.99585915 C17,4.71252581 16.9041667,4.47502581 16.7125,4.28335915 C16.5208333,4.09169248 16.2833333,3.99585915 16,3.99585915 C15.7166667,3.99585915 15.4791667,4.09169248 15.2875,4.28335915 C15.0958333,4.47502581 15,4.71252581 15,4.99585915 C15,5.27919248 15.0958333,5.51669248 15.2875,5.70835915 C15.4791667,5.90002581 15.7166667,5.99585915 16,5.99585915 Z" id="Shape" fill="#000000" fill-rule="nonzero" transform="translate(12.001276, 12.087500) scale(-1, 1) translate(-12.001276, -12.087500) "></path>
    </g>
</svg>