<?xml version="1.0" encoding="UTF-8"?>
<svg width="24px" height="24px" viewBox="0 0 24 24" version="1.1" xmlns="http://www.w3.org/2000/svg" xmlns:xlink="http://www.w3.org/1999/xlink">
    <!-- Generator: Sketch 64 (93537) - https://sketch.com -->
    <title>img/icons/humidity</title>
    <desc>Created with Sketch.</desc>
    <g id="img/icons/humidity" stroke="none" stroke-width="1" fill="none" fill-rule="evenodd">
        <g id="thermostat_black_24dp">
            <polygon id="Path" points="0 0 24 0 24 24 0 24"></polygon>
            <path d="M9.5,2 C10.8849432,3.26108647 12.0783197,4.47454536 13.0799301,5.64058956 C13.156392,5.65705406 13.2403595,5.66666667 13.3333333,5.66666667 C14.1401401,5.66666667 14.2312312,5 15.5,5 C16.7427427,5 16.8923924,5.66666667 17.6666667,5.66666667 C18.4734735,5.66666667 18.5645646,5 19.8333333,5 C21.0760761,5 21.2257257,5.66666667 22,5.66666667 L22,5.66666667 L22,7 C20.7572573,6.98666667 20.6206206,6.33333333 19.8463463,6.33333333 C19.0395395,6.33333333 18.9484484,7 17.6796797,7 C16.4369369,7 16.2872873,6.33333333 15.513013,6.33333333 C14.9053547,6.33333333 14.7036911,6.71150457 14.0990929,6.89819669 C14.3978557,7.28952758 14.6733344,7.67580376 14.9257842,8.05640839 C14.1759865,8.21656045 13.996271,8.66666667 13.3333333,8.66666667 C12.5590591,8.66666667 12.4094094,8 11.1666667,8 C9.8978979,8 9.80680681,8.66666667 9,8.66666667 L9,10 C10.2362362,10 10.4119119,9.33333333 11.1796797,9.33333333 C11.953954,9.33333333 12.1036036,10 13.3463463,10 C14.6151151,10 14.7062062,9.33333333 15.513013,9.33333333 C15.5825287,9.33333333 15.6470095,9.33870717 15.7076984,9.34848991 C16.0530095,9.987972 16.3296472,10.608952 16.5368133,11.2129173 C16.9494756,11.4079832 17.189174,11.6666667 17.671,11.6666667 C18.477,11.6666667 18.568,11 19.8355,11 C21.103,11 21.194,11.6666667 22,11.6666667 L22,11.6666667 L22,13 C20.7585,13 20.609,12.3333333 19.8355,12.3333333 C19.0295,12.3333333 18.932,13 17.671,13 C17.3713612,13 17.1353325,12.9611661 16.9387884,12.9022435 C16.8699926,12.3545316 16.735284,11.7915326 16.5368133,11.2129173 C16.2875244,11.0947946 15.974649,11 15.5065,11 C14.239,11 14.1415,11.6666667 13.3355,11.6666667 C12.5295,11.6666667 12.4385,11 11.171,11 C9.9035,11 9.806,11.6666667 9,11.6666667 L9,13 C10.2675,13 10.3715,12.3333333 11.171,12.3333333 C11.977,12.3333333 12.068,13 13.3355,13 C14.603,13 14.7005,12.3333333 15.5065,12.3333333 C16.0933141,12.3333333 16.3209871,12.717031 16.9387884,12.9022435 C16.9802981,13.2061092 17,13.5054553 17,13.8 C17,18.78 13.4375,22 9.5,22 C5.5625,22 2,18.78 2,13.8 C2,10.48 4.503125,6.55 9.5,2 Z M5.590625,14 C5.159375,14 4.821875,14.42 4.896875,14.87 C5.43125,17.9 7.765625,19.12 9.7625,18.99 C10.1375,18.97 10.4375,18.64 10.4375,18.24 C10.4375,17.81 10.1,17.47 9.696875,17.49 C8.421875,17.6 6.66875,16.84 6.284375,14.62 C6.21875,14.26 5.9375,14 5.590625,14 Z M19.8333333,8 C21.0760761,8 21.2257257,8.66666667 22,8.66666667 L22,8.66666667 L22,10 C20.7572573,9.98666667 20.6206206,9.33333333 19.8463463,9.33333333 C19.0395395,9.33333333 18.9484484,10 17.6796797,10 C16.5485126,10 16.3229701,9.44766849 15.7076984,9.34848991 C15.4771619,8.92628305 15.2167712,8.49511336 14.9257842,8.05640839 C15.0849558,8.02119849 15.2737542,8 15.5,8 C16.7427427,8 16.8923924,8.66666667 17.6666667,8.66666667 C18.4734735,8.66666667 18.5645646,8 19.8333333,8 Z M11.1666667,5 C9.8978979,5 9.80680681,5.66666667 9,5.66666667 L9,7 C10.2362362,7 10.4119119,6.33333333 11.1796797,6.33333333 C11.953954,6.33333333 12.1036036,7 13.3463463,7 C13.6595234,7 13.9009473,6.95938151 14.0990929,6.89819669 C13.7850652,6.48487797 13.4452532,6.06588761 13.0799301,5.64058956 C12.5073584,5.51617428 12.2601824,5 11.1666667,5 Z" id="Combined-Shape" fill="#000000" fill-rule="nonzero"></path>
        </g>
    </g>
</svg>