<?xml version="1.0" encoding="UTF-8"?>
<svg width="24px" height="24px" viewBox="0 0 24 24" version="1.1" xmlns="http://www.w3.org/2000/svg" xmlns:xlink="http://www.w3.org/1999/xlink">
    <!-- Generator: Sketch 64 (93537) - https://sketch.com -->
    <title>img/icons/instagram</title>
    <desc>Created with Sketch.</desc>
    <g id="img/icons/instagram" stroke="none" stroke-width="1" fill="none" fill-rule="evenodd">
        <g id="thermostat_black_24dp">
            <polygon id="Path" points="0 0 24 0 24 24 0 24"></polygon>
            <g id="instagram" transform="translate(2.000000, 2.000000)" fill="#100F0D" fill-rule="nonzero">
                <g id="g10" transform="translate(10.000000, 10.008519) scale(-1, 1) rotate(-180.000000) translate(-10.000000, -10.008519) translate(0.000000, 0.023379)">
                    <g id="g12">
                        <path d="M9.99686483,19.9639817 C7.2818649,19.9639817 6.9414284,19.9524908 5.87515858,19.9039123 C4.81111099,19.8554527 4.08440466,19.6866959 3.44851976,19.4399599 C2.79113882,19.1848633 2.23364677,18.8435458 1.67787297,18.2886177 C1.12211505,17.7336895 0.780289663,17.1769783 0.524817447,16.5205741 C0.27770039,15.885646 0.108708331,15.1600194 0.0601440461,14.0975529 C0.0115017457,13.0328674 0,12.6929368 0,9.98197102 C0,7.27104489 0.0115017457,6.93111424 0.0601440461,5.86642878 C0.108708331,4.80396224 0.27770039,4.07833571 0.524817447,3.4434115 C0.780289663,2.78700736 1.12211505,2.23032783 1.67787297,1.675364 C2.23364677,1.12043583 2.79113882,0.779114394 3.44851976,0.52402178 C4.08440466,0.277287759 4.81111099,0.108531349 5.87515858,0.0600701322 C6.9414284,0.0115001087 7.2818649,0 9.99686483,0 C12.7118251,0 13.0522616,0.0115001087 14.1185314,0.0600701322 C15.182579,0.108531349 15.9092853,0.277287759 16.5451583,0.52402178 C17.2025393,0.779114394 17.7600392,1.12043583 18.3158329,1.675364 C18.8715868,2.23032783 19.2134122,2.78700736 19.4688884,3.4434115 C19.7159916,4.07833571 19.8849995,4.80396224 19.9335312,5.86642878 C19.982182,6.93111424 19.99369,7.27104489 19.99369,9.98197102 C19.99369,12.6929368 19.982182,13.0328674 19.9335312,14.0975529 C19.8849995,15.1600194 19.7159916,15.885646 19.4688884,16.5205741 C19.2134122,17.1769783 18.8715868,17.7336895 18.3158329,18.2886177 C17.7600392,18.8435458 17.2025393,19.1848633 16.5451583,19.4399599 C15.9092853,19.6866959 15.182579,19.8554527 14.1185314,19.9039123 C13.0522616,19.9524908 12.7118251,19.9639817 9.99686483,19.9639817 Z M9.99686483,18.165428 C12.6661108,18.165428 12.9823013,18.1552447 14.0364282,18.1072209 C15.0111107,18.0628425 15.5404361,17.9002274 15.892698,17.7635261 C16.359325,17.5824463 16.6923409,17.3661412 17.0421424,17.0168594 C17.3919837,16.667538 17.6086107,16.3350169 17.7899599,15.8690833 C17.9268646,15.5173448 18.0897218,14.988806 18.1341662,14.0155717 C18.1822615,12.9630111 18.1924599,12.6472904 18.1924599,9.98197102 C18.1924599,7.31669125 18.1822615,7.0009706 18.1341662,5.94840996 C18.0897218,4.97517571 17.9268646,4.44663684 17.7899599,4.09489836 C17.6086107,3.62896078 17.3919837,3.29644766 17.0421424,2.94715793 C16.6923409,2.59783649 16.359325,2.38153139 15.892698,2.20045562 C15.5404361,2.06375428 15.0111107,1.90114309 14.0364282,1.85676865 C12.98246,1.80873695 12.6663092,1.79855369 9.99686483,1.79855369 C7.32738077,1.79855369 7.01126967,1.80873695 5.95726176,1.85676865 C4.98257924,1.90114309 4.45325386,2.06375428 4.10099196,2.20045562 C3.63436102,2.38153139 3.30135309,2.59783649 2.95154358,2.94715793 C2.60173406,3.29644766 2.38507534,3.62896078 2.2037301,4.09489836 C2.06682535,4.44663684 1.90398805,4.97517571 1.85951583,5.94840996 C1.81141662,7.0009706 1.80123011,7.31669125 1.80123011,9.98197102 C1.80123011,12.6472904 1.81141662,12.9630111 1.85951583,14.0155717 C1.90398805,14.988806 2.06682535,15.5173448 2.2037301,15.8690833 C2.38507534,16.3350169 2.60171819,16.667538 2.9515277,17.0168198 C3.30135309,17.3661412 3.63436102,17.5824463 4.10099196,17.7635261 C4.45325386,17.9002274 4.98257924,18.0628425 5.95726176,18.1072209 C7.01138871,18.1552447 7.32757918,18.165428 9.99686483,18.165428" id="path14"></path>
                        <path d="M9.99686483,6.65466056 C8.15646805,6.65466056 6.66456333,8.14434848 6.66456333,9.98197102 C6.66456333,11.8196332 8.15646805,13.3093211 9.99686483,13.3093211 C11.8372219,13.3093211 13.3291267,11.8196332 13.3291267,9.98197102 C13.3291267,8.14434848 11.8372219,6.65466056 9.99686483,6.65466056 Z M9.99686483,15.1078748 C7.16166649,15.1078748 4.86333321,12.8129566 4.86333321,9.98197102 C4.86333321,7.15102508 7.16166649,4.85610686 9.99686483,4.85610686 C12.8320235,4.85610686 15.1303568,7.15102508 15.1303568,9.98197102 C15.1303568,12.8129566 12.8320235,15.1078748 9.99686483,15.1078748" id="path16"></path>
                        <path d="M16.532817,15.3103909 C16.532817,14.6488357 15.9957139,14.1125702 15.3331742,14.1125702 C14.6706742,14.1125702 14.1335711,14.6488357 14.1335711,15.3103909 C14.1335711,15.9719461 14.6706742,16.5082512 15.3331742,16.5082512 C15.9957139,16.5082512 16.532817,15.9719461 16.532817,15.3103909" id="path18"></path>
                    </g>
                </g>
            </g>
        </g>
    </g>
</svg>