<?xml version="1.0" encoding="UTF-8"?>
<svg width="24px" height="24px" viewBox="0 0 24 24" version="1.1" xmlns="http://www.w3.org/2000/svg" xmlns:xlink="http://www.w3.org/1999/xlink">
    <!-- Generator: Sketch 64 (93537) - https://sketch.com -->
    <title>img/icons/line</title>
    <desc>Created with Sketch.</desc>
    <g id="img/icons/line" stroke="none" stroke-width="1" fill="none" fill-rule="evenodd">
        <path d="M12.75,22 C9.97222222,21.8611111 7.90277778,21.2777778 6.54166667,20.25 C5.18055556,19.2222222 4.5,17.7361111 4.5,15.7916667 C4.5,13.9861111 5.24305556,12.5208333 6.72916667,11.3958333 C8.21527778,10.2708333 10.2777778,9.59722222 12.9166667,9.375 C14,9.29166667 14.8125,9.11805556 15.3541667,8.85416667 C15.8958333,8.59027778 16.1666667,8.22222222 16.1666667,7.75 C16.1666667,7.02777778 15.7569444,6.48611111 14.9375,6.125 C14.1180556,5.76388889 12.7638889,5.5 10.875,5.33333333 L11.1666667,2 C14.0277778,2.22222222 16.1319444,2.79861111 17.4791667,3.72916667 C18.8263889,4.65972222 19.5,6 19.5,7.75 C19.5,9.22222222 18.9652778,10.375 17.8958333,11.2083333 C16.8263889,12.0416667 15.25,12.5416667 13.1666667,12.7083333 C11.3888889,12.8472222 10.0555556,13.1736111 9.16666667,13.6875 C8.27777778,14.2013889 7.83333333,14.9027778 7.83333333,15.7916667 C7.83333333,16.7638889 8.22222222,17.4652778 9,17.8958333 C9.77777778,18.3263889 11.0833333,18.5833333 12.9166667,18.6666667 L12.75,22 Z" id="Shape" fill="#000000" fill-rule="nonzero"></path>
    </g>
</svg>