<?xml version="1.0" encoding="UTF-8"?>
<svg width="24px" height="24px" viewBox="0 0 24 24" version="1.1" xmlns="http://www.w3.org/2000/svg" xmlns:xlink="http://www.w3.org/1999/xlink">
    <!-- Generator: Sketch 64 (93537) - https://sketch.com -->
    <title>img/icons/rod</title>
    <desc>Created with Sketch.</desc>
    <g id="img/icons/rod" stroke="none" stroke-width="1" fill="none" fill-rule="evenodd">
        <path d="M5.53322949,15.9480302 C5.65419105,16.7558238 6.09721167,17.4582947 6.72742696,17.9205786 L4.24870195,20.4134205 C4.21612827,20.4461887 4.18132274,20.4766599 4.14453551,20.5046152 C3.73863504,20.8130665 3.17286131,20.7638721 2.8253986,20.4086225 L2.74329993,20.3134638 L2.4677902,19.9509121 C2.17964922,19.5717386 2.20165792,19.0482 2.50433868,18.6954006 L2.59382465,18.6036525 L5.53322949,15.9480302 Z M8.5,13 C9.88071187,13 11,14.1192881 11,15.5 C11,16.8807119 9.88071187,18 8.5,18 C7.11928813,18 6,16.8807119 6,15.5 C6,14.1192881 7.11928813,13 8.5,13 Z M21.2009365,2.56030275 C21.2047362,2.56387028 21.2084848,2.56749183 21.2121812,2.57116628 C21.403018,2.76087029 21.4250383,3.05616119 21.2776862,3.27022399 L21.2599626,3.29032379 L21.2601882,14.1691105 L20.2398118,14.1691105 L20.2389626,4.32732379 L10.9101157,13.7132504 C10.5066626,13.1699331 9.92384378,12.7677605 9.24924574,12.5943191 L20.3711752,2.55222379 C20.6077397,2.33862623 20.9685758,2.3421395 21.2009365,2.56030275 Z" id="Combined-Shape" fill="#000000"></path>
        <path d="M18.9932478,21.2066708 C18.3979012,21.2066708 17.8918566,20.9357881 17.475114,20.5190455 C17.0583713,20.1023029 16.85,19.5962582 16.85,19.0009116 L16.85,16.8576638 L18.3400444,18.5811922 L18.0819556,18.5811922 L17.5644159,18.5811922 L17.5644159,19.0009116 C17.5644159,19.3938404 17.7043224,19.7302112 17.9841353,20.0100241 C18.2639482,20.289837 18.6003191,20.4297435 18.9932478,20.4297435 C19.3861766,20.4297435 19.7225474,20.289837 20.0023604,20.0100241 C20.2821733,19.7302112 20.4220797,19.3938404 20.4220797,19.0009116 L20.4211681,16.0792573 C20.2068433,15.9959088 20.0341928,15.8634441 19.9032166,15.6818634 C19.7722403,15.5002827 19.7067522,15.2963765 19.7067522,15.0701448 C19.7067522,14.8439131 19.7722403,14.6400068 19.9032166,14.4584261 C20.0341928,14.2768454 20.2068433,14.1443808 20.4211681,14.0610322 C20.5212073,14.0203441 20.6405804,14 20.7792877,14 C20.9179949,14 21.0367604,14.0203441 21.1355841,14.0610322 C21.3499088,14.1443808 21.5225594,14.2768454 21.6535356,14.4584261 C21.7845119,14.6400068 21.85,14.8439131 21.85,15.0701448 C21.85,15.2963765 21.7845119,15.5017711 21.6535356,15.6863285 C21.5225594,15.870886 21.3499088,16.0018622 21.1355841,16.0792573 L21.1364957,19.0009116 C21.1364957,19.5962582 20.9281243,20.1023029 20.5113817,20.5190455 C20.0946391,20.9357881 19.5885945,21.2066708 18.9932478,21.2066708 Z M20.7783761,15.4273527 C20.879585,15.4273527 20.9644219,15.3931203 21.0328868,15.3246554 C21.1013516,15.2561906 21.1355841,15.1713537 21.1355841,15.0701448 C21.1355841,14.9689358 21.1013516,14.884099 21.0328868,14.8156341 C20.9644219,14.7471692 20.879585,14.7129368 20.7783761,14.7129368 C20.6771672,14.7129368 20.5923303,14.7471692 20.5238654,14.8156341 C20.4554005,14.884099 20.4211681,14.9689358 20.4211681,15.0701448 C20.4211681,15.1713537 20.4554005,15.2561906 20.5238654,15.3246554 C20.5923303,15.3931203 20.6771672,15.4273527 20.7783761,15.4273527 Z" id="hook" fill="#000000" fill-rule="nonzero"></path>
    </g>
</svg>