<?xml version="1.0" encoding="UTF-8"?>
<svg width="24px" height="24px" viewBox="0 0 24 24" version="1.1" xmlns="http://www.w3.org/2000/svg" xmlns:xlink="http://www.w3.org/1999/xlink">
    <!-- Generator: Sketch 64 (93537) - https://sketch.com -->
    <title>img/icons/ruler</title>
    <desc>Created with Sketch.</desc>
    <g id="img/icons/ruler" stroke="none" stroke-width="1" fill="none" fill-rule="evenodd">
        <g id="straighten_black_24dp" transform="translate(12.000000, 12.000000) rotate(-45.000000) translate(-12.000000, -12.000000) translate(-0.000000, 0.000000)">
            <polygon id="Path" points="0 0 24 0 24 24 0 24"></polygon>
            <path d="M21,6 L3,6 C1.9,6 1,6.9 1,8 L1,16 C1,17.1 1.9,18 3,18 L21,18 C22.1,18 23,17.1 23,16 L23,8 C23,6.9 22.1,6 21,6 Z M21,16 L3,16 L3,8 L5,8 L5,13.0011963 L7,13.0011963 L7,8 L9,8 L9,11 L11,11 L11,8 L13,8 L13,13.0011963 L15,13.0011963 L15,8 L17,8 L17,11 L19,11 L19,8 L21,8 L21,16 Z" id="Shape" fill="#000000" fill-rule="nonzero"></path>
        </g>
    </g>
</svg>