<?xml version="1.0" encoding="UTF-8"?>
<svg width="24px" height="24px" viewBox="0 0 24 24" version="1.1" xmlns="http://www.w3.org/2000/svg" xmlns:xlink="http://www.w3.org/1999/xlink">
    <title>img/icons/species</title>
    <g id="img/icons/species" stroke="none" stroke-width="1" fill="none" fill-rule="evenodd">
        <path d="M16.3049553,5.98014213 C16.3135349,5.98270939 16.3213319,5.98739143 16.32763,5.99375815 C16.3414688,6.00774782 16.3460003,6.02745069 16.341266,6.04518212 L16.3272204,6.06934012 L16.1060362,6.29634203 C15.2478782,7.21212694 14.7048837,8.21741793 14.4770526,9.312215 C14.2698088,10.3080838 14.2471924,11.4383963 14.4092034,12.7031525 L5,12.704 L5.00048819,13.747984 C4.83267299,13.7379419 4.65631818,13.7325038 4.46840868,13.7325038 C3.5215288,13.7325038 3.35112456,14.6210192 3.42102477,15.2018905 C3.48435275,15.7281464 3.85927964,16.5789874 4.99841977,16.8778253 L4.99902616,19.9470374 C4.37382468,19.5023759 3.80118101,18.9348521 3.55088345,18.6262176 C2.56099433,17.4056147 2,16.1512433 2,14.5646867 C2,10.341851 4.85163184,7.77893943 6.89597474,6.79286218 C9.99071683,5.30013081 13.1270437,5.02922413 16.3049553,5.98014213 Z M17.5870487,6.39444519 L17.6292847,6.40013224 L17.9235596,6.49707031 C18.7961097,6.80823138 19.5765787,7.3012312 20.2649665,7.97606979 C21.2573607,8.94893112 21.8253686,9.81365738 21.9689902,10.5702486 C21.9690322,10.5704702 21.9690739,10.5706919 21.9691152,10.5709137 C21.9842011,10.6519888 21.9444224,10.7305669 21.8760195,10.7684102 L21.8197602,10.7885573 L21.6178454,10.8273296 C21.2969312,10.8909875 21.0540963,10.9499777 20.8893408,11.0043003 C20.6744402,11.0751565 20.4002089,11.2249657 20.0666468,11.4537279 C20.0588189,11.4590964 20.0525562,11.4664463 20.0484981,11.4750269 C20.0400565,11.4928767 20.0423271,11.5130356 20.0527121,11.5282434 L20.0740505,11.5464342 L20.2472431,11.6266995 C20.5232856,11.7528595 20.7373181,11.8387233 20.8893408,11.8842909 C21.0727682,11.9392717 21.3688422,11.9964123 21.7775629,12.0557125 C21.7862772,12.0569769 21.7945432,12.0603781 21.8016237,12.0656129 C21.8174219,12.0772929 21.8249136,12.0960364 21.8229616,12.1142557 L21.8128087,12.1402431 L21.6703481,12.3209734 C21.5574592,12.4555332 21.4343036,12.5832827 21.3008811,12.7042219 L15.5805011,12.7034751 C15.4321217,11.543483 15.4526794,10.5009497 15.6421741,9.57587504 C15.9170567,8.23395452 16.5391195,7.18293092 17.5083624,6.42280424 L17.5456697,6.40220342 L17.5456697,6.40220342 L17.5870487,6.39444519 Z M19.4808872,8.64545531 C19.2276563,8.64545531 19.0223721,8.85033986 19.0223721,9.10307775 C19.0223721,9.35581565 19.2276563,9.5607002 19.4808872,9.5607002 C19.7341181,9.5607002 19.9394023,9.35581565 19.9394023,9.10307775 C19.9394023,8.85033986 19.7341181,8.64545531 19.4808872,8.64545531 Z M11.2620929,2.993407 C11.8679907,3.12524893 12.5237104,3.59487877 13.2292522,4.40229651 L13.4066281,4.61122748 C13.4253712,4.63390565 13.4221812,4.66748421 13.399503,4.6862273 C13.3891605,4.69477523 13.3759732,4.69910545 13.3625766,4.69835259 C12.5726301,4.65395923 11.9807702,4.65003731 11.586997,4.68658685 C11.1817613,4.72420033 10.6023813,4.81398053 9.84885686,4.95592746 L9.8488033,4.95564315 C9.81995337,4.96107782 9.79045131,4.9502146 9.772015,4.92736823 C9.53790664,4.63725999 9.22605593,4.35782502 8.83646289,4.08906333 C8.52997899,3.87763467 8.17586087,3.67978579 7.77410852,3.49551668 L7.7739235,3.49592006 C7.74692739,3.48353794 7.73508042,3.45161557 7.74746255,3.42461946 C7.75429021,3.40973348 7.76752904,3.39876998 7.78342673,3.39483641 C9.44408338,2.98393871 10.6036388,2.85012891 11.2620929,2.993407 Z M22,18.704 L22,20.704 L11,20.704 L11,18.704 L22,18.704 Z M9,18.704 L9,20.704 L7,20.704 L7,18.704 L9,18.704 Z M22,14.704 L22,16.704 L11,16.704 L11,14.704 L22,14.704 Z M9,14.704 L9,16.704 L7,16.704 L7,14.704 L9,14.704 Z" id="species" fill="#000000"></path>
    </g>
</svg>