<?xml version="1.0" encoding="UTF-8"?>
<svg width="24px" height="24px" viewBox="0 0 24 24" version="1.1" xmlns="http://www.w3.org/2000/svg" xmlns:xlink="http://www.w3.org/1999/xlink">
    <!-- Generator: Sketch 64 (93537) - https://sketch.com -->
    <title>species</title>
    <desc>Created with Sketch.</desc>
    <g id="species" stroke="none" stroke-width="1" fill="none" fill-rule="evenodd">
        <path d="M22,18 L22,20 L11,20 L11,18 L22,18 Z M9,18 L9,20 L7,20 L7,18 L9,18 Z M11.9075875,3 C11.9075875,3 14.3711089,5.70144 14.7966926,6.63744 C15.623977,6.47284764 20.4037195,7.73261685 21.7144881,11.9990892 L5,12 L5.00003656,15.8247472 C4.69883154,16.2797137 3.84766021,17.2691709 2.17996109,17.18688 C2.39396887,16.68 3.3959144,13.87488 2,8.58144 C4.31031128,9.048 5.00826848,10.02144 5.00826848,10.02144 C5.00826848,10.02144 7.83657588,8.54688 7.83657588,8.54688 C7.83657588,8.54688 7.89494163,7.71744 7.53015564,6.96288 C10.3900778,4.83744 11.9075875,3 11.9075875,3 Z M22,14 L22,16 L11,16 L11,14 L22,14 Z M9,14 L9,16 L7,16 L7,14 L9,14 Z M16,9 C15.4477153,9 15,9.44771525 15,10 C15,10.5522847 15.4477153,11 16,11 C16.5522847,11 17,10.5522847 17,10 C17,9.44771525 16.5522847,9 16,9 Z" id="Species" fill="#000000"></path>
    </g>
</svg>