<?xml version="1.0" encoding="UTF-8"?>
<svg width="24px" height="24px" viewBox="0 0 24 24" version="1.1" xmlns="http://www.w3.org/2000/svg" xmlns:xlink="http://www.w3.org/1999/xlink">
    <!-- Generator: Sketch 64 (93537) - https://sketch.com -->
    <title>img/icons/twitter</title>
    <desc>Created with Sketch.</desc>
    <g id="img/icons/twitter" stroke="none" stroke-width="1" fill="none" fill-rule="evenodd">
        <g id="thermostat_black_24dp">
            <polygon id="Path" points="0 0 24 0 24 24 0 24"></polygon>
            <g id="twitter" transform="translate(2.000000, 4.000000)" fill="#1D9BF0" fill-rule="nonzero">
                <path d="M17.8906883,4.07206478 C17.902834,4.24777328 17.902834,4.42348178 17.902834,4.60080972 C17.902834,10.0040486 13.7894737,16.2356275 6.26801619,16.2356275 L6.26801619,16.2323887 C4.04615385,16.2356275 1.87044534,15.5991903 0,14.3991903 C0.323076923,14.4380567 0.647773279,14.4574899 0.973279352,14.4582996 C2.8145749,14.459919 4.60323887,13.8421053 6.05182186,12.7044534 C4.30202429,12.6712551 2.76761134,11.5303644 2.23157895,9.86477733 C2.84453441,9.98299595 3.47611336,9.95870445 4.07773279,9.79433198 C2.17004049,9.40890688 0.79757085,7.73279352 0.79757085,5.78623482 C0.79757085,5.76842105 0.79757085,5.751417 0.79757085,5.73441296 C1.3659919,6.05101215 2.00242915,6.22672065 2.6534413,6.24615385 C0.856680162,5.04534413 0.302834008,2.65506073 1.38785425,0.786234818 C3.46396761,3.34089069 6.52712551,4.89392713 9.81538462,5.0582996 C9.48582996,3.63805668 9.93603239,2.14979757 10.9983806,1.151417 C12.6453441,-0.396761134 15.2356275,-0.317408907 16.7838057,1.32874494 C17.6995951,1.14817814 18.5773279,0.812145749 19.3805668,0.336032389 C19.0753036,1.28259109 18.4364372,2.08663968 17.582996,2.59757085 C18.3935223,2.50202429 19.1854251,2.28502024 19.9311741,1.95384615 C19.3821862,2.77651822 18.6906883,3.49311741 17.8906883,4.07206478 Z" id="white_background"></path>
            </g>
        </g>
    </g>
</svg>