<?xml version="1.0" encoding="UTF-8"?>
<svg width="24px" height="24px" viewBox="0 0 24 24" version="1.1" xmlns="http://www.w3.org/2000/svg" xmlns:xlink="http://www.w3.org/1999/xlink">
    <!-- Generator: Sketch 64 (93537) - https://sketch.com -->
    <title>img/icons/reel</title>
    <desc>Created with Sketch.</desc>
    <g id="img/icons/reel" stroke="none" stroke-width="1" fill="none" fill-rule="evenodd">
        <path d="M12,6 C16.418278,6 20,9.581722 20,14 C20,18.418278 16.418278,22 12,22 C7.581722,22 4,18.418278 4,14 C4,9.581722 7.581722,6 12,6 Z M12,17 C11.0335017,17 10.25,17.7835017 10.25,18.75 C10.25,19.7164983 11.0335017,20.5 12,20.5 C12.9664983,20.5 13.75,19.7164983 13.75,18.75 C13.75,17.7835017 12.9664983,17 12,17 Z M15.75,14.5 C14.7835017,14.5 14,15.2835017 14,16.25 C14,17.2164983 14.7835017,18 15.75,18 C16.7164983,18 17.5,17.2164983 17.5,16.25 C17.5,15.2835017 16.7164983,14.5 15.75,14.5 Z M8.25,14.5 C7.28350169,14.5 6.5,15.2835017 6.5,16.25 C6.5,17.2164983 7.28350169,18 8.25,18 C9.21649831,18 10,17.2164983 10,16.25 C10,15.2835017 9.21649831,14.5 8.25,14.5 Z M12,13.25 C11.5857864,13.25 11.25,13.5857864 11.25,14 C11.25,14.4142136 11.5857864,14.75 12,14.75 C12.4142136,14.75 12.75,14.4142136 12.75,14 C12.75,13.5857864 12.4142136,13.25 12,13.25 Z M15.75,10 C14.7835017,10 14,10.7835017 14,11.75 C14,12.7164983 14.7835017,13.5 15.75,13.5 C16.7164983,13.5 17.5,12.7164983 17.5,11.75 C17.5,10.7835017 16.7164983,10 15.75,10 Z M8.25,10 C7.28350169,10 6.5,10.7835017 6.5,11.75 C6.5,12.7164983 7.28350169,13.5 8.25,13.5 C9.21649831,13.5 10,12.7164983 10,11.75 C10,10.7835017 9.21649831,10 8.25,10 Z M12,7.5 C11.0335017,7.5 10.25,8.28350169 10.25,9.25 C10.25,10.2164983 11.0335017,11 12,11 C12.9664983,11 13.75,10.2164983 13.75,9.25 C13.75,8.28350169 12.9664983,7.5 12,7.5 Z" id="Combined-Shape" fill="#000000"></path>
        <rect id="Rectangle" fill="#000000" x="3" y="2" width="18" height="3" rx="1.5"></rect>
    </g>
</svg>